<svg width="452" height="272" viewBox="0 0 452 272" fill="none" xmlns="http://www.w3.org/2000/svg">
<rect width="59" height="59" fill="#3F54C0"/>
<rect x="79" width="59" height="130" fill="#FF0000"/>
<rect x="79" y="71" width="59" height="59" fill="#FF0000"/>
<rect x="158" width="59" height="201" fill="#FFCB01"/>
<rect x="158" y="71" width="59" height="59" fill="#FFCB01"/>
<rect x="158" y="142" width="59" height="59" fill="#FFCB01"/>
<rect x="237" width="59" height="130" fill="black"/>
<rect x="237" y="71" width="59" height="59" fill="black"/>
<rect x="237" y="142" width="59" height="130" fill="black"/>
<rect x="296" y="272" width="59" height="20" transform="rotate(-90 296 272)" fill="black"/>
<path d="M316 272C352.069 272 386.662 257.671 412.167 232.167C437.671 206.662 452 172.069 452 136C452 99.9306 437.671 65.3384 412.167 39.8335C386.662 14.3285 352.069 7.02298e-06 316 0L316 58.7699C336.483 58.7699 356.126 66.9066 370.61 81.3901C385.093 95.8735 393.23 115.517 393.23 136C393.23 156.483 385.093 176.126 370.61 190.61C356.126 205.093 336.483 213.23 316 213.23V272Z" fill="black"/>
<path d="M316 195C331.648 195 346.655 188.784 357.719 177.719C368.784 166.655 375 151.648 375 136C375 120.352 368.784 105.345 357.719 94.2807C346.655 83.2161 331.648 77 316 77L316 106.37C323.858 106.37 331.395 109.491 336.952 115.048C342.509 120.605 345.63 128.142 345.63 136C345.63 143.858 342.509 151.395 336.952 156.952C331.395 162.509 323.858 165.63 316 165.63L316 195Z" fill="black"/>
</svg>
