<svg width="226" height="136" viewBox="0 0 226 136" fill="none" xmlns="http://www.w3.org/2000/svg">
<g clip-path="url(#clip0_182_15)">
<path d="M29.5 0H0V29.5H29.5V0Z" fill="#3F54C0"/>
<path d="M69 0H39.5V65H69V0Z" fill="#FF0000"/>
<path d="M69 35.5H39.5V65H69V35.5Z" fill="#FF0000"/>
<path d="M108.5 0H79V100.5H108.5V0Z" fill="#FFCB01"/>
<path d="M108.5 35.5H79V65H108.5V35.5Z" fill="#FFCB01"/>
<path d="M108.5 71H79V100.5H108.5V71Z" fill="#FFCB01"/>
<path d="M148 0H118.5V65H148V0Z" fill="black"/>
<path d="M148 35.5H118.5V65H148V35.5Z" fill="black"/>
<path d="M148 71H118.5V136H148V71Z" fill="black"/>
<path d="M148 106.5V136H158V106.5H148Z" fill="black"/>
<path d="M158 136C176.035 136 193.331 128.836 206.083 116.083C218.836 103.331 226 86.0347 226 68C226 49.9653 218.836 32.6692 206.083 19.9167C193.331 7.16427 176.035 3.51149e-06 158 0V29.385C168.241 29.385 178.063 33.4533 185.305 40.695C192.547 47.9368 196.615 57.7587 196.615 68C196.615 78.2413 192.547 88.0632 185.305 95.305C178.063 102.547 168.241 106.615 158 106.615V136Z" fill="black"/>
<path d="M158 97.5C165.824 97.5 173.327 94.392 178.86 88.8597C184.392 83.3273 187.5 75.8239 187.5 68C187.5 60.1761 184.392 52.6727 178.86 47.1404C173.327 41.608 165.824 38.5 158 38.5V53.1848C161.929 53.1848 165.698 54.7456 168.476 57.524C171.254 60.3024 172.815 64.0708 172.815 68C172.815 71.9292 171.254 75.6976 168.476 78.476C165.698 81.2544 161.929 82.8152 158 82.8152V97.5Z" fill="black"/>
</g>
<defs>
<clipPath id="clip0_182_15">
<rect width="226" height="136" fill="white"/>
</clipPath>
</defs>
</svg>
