<svg width="563" height="474" viewBox="0 0 563 474" fill="none" xmlns="http://www.w3.org/2000/svg">
<rect x="56" width="59" height="59" fill="#3F54C0"/>
<rect x="135" width="59" height="130" fill="#FF0000"/>
<rect x="135" y="71" width="59" height="59" fill="#FF0000"/>
<rect x="214" width="59" height="201" fill="#FFCB01"/>
<rect x="214" y="71" width="59" height="59" fill="#FFCB01"/>
<rect x="214" y="142" width="59" height="59" fill="#FFCB01"/>
<rect x="293" width="59" height="130" fill="white"/>
<rect x="293" y="71" width="59" height="59" fill="white"/>
<rect x="293" y="142" width="59" height="130" fill="white"/>
<rect x="352" y="272" width="59" height="20" transform="rotate(-90 352 272)" fill="white"/>
<path d="M372 272C408.069 272 442.662 257.671 468.167 232.167C493.671 206.662 508 172.069 508 136C508 99.9306 493.671 65.3384 468.167 39.8335C442.662 14.3285 408.069 7.02298e-06 372 0L372 58.7699C392.483 58.7699 412.126 66.9066 426.61 81.3901C441.093 95.8735 449.23 115.517 449.23 136C449.23 156.483 441.093 176.126 426.61 190.61C412.126 205.093 392.483 213.23 372 213.23V272Z" fill="white"/>
<path d="M372 195C387.648 195 402.655 188.784 413.719 177.719C424.784 166.655 431 151.648 431 136C431 120.352 424.784 105.345 413.719 94.2807C402.655 83.2161 387.648 77 372 77L372 106.37C379.858 106.37 387.395 109.491 392.952 115.048C398.509 120.605 401.63 128.142 401.63 136C401.63 143.858 398.509 151.395 392.952 156.952C387.395 162.509 379.858 165.63 372 165.63L372 195Z" fill="white"/>
<path d="M8.14 372H27.28V449H8.14V372ZM35.64 449H20.46V432.5H34.98C37.9133 432.5 40.7367 432.133 43.45 431.4C46.2367 430.667 48.6567 429.457 50.71 427.77C52.8367 426.083 54.5233 423.847 55.77 421.06C57.0167 418.2 57.64 414.68 57.64 410.5C57.64 406.32 57.0167 402.837 55.77 400.05C54.5233 397.19 52.8367 394.917 50.71 393.23C48.6567 391.543 46.2367 390.333 43.45 389.6C40.7367 388.867 37.9133 388.5 34.98 388.5H20.46V372H35.64C44.0733 372 51.37 373.577 57.53 376.73C63.69 379.883 68.4567 384.32 71.83 390.04C75.2033 395.76 76.89 402.58 76.89 410.5C76.89 418.347 75.2033 425.167 71.83 430.96C68.4567 436.68 63.69 441.117 57.53 444.27C51.37 447.423 44.0733 449 35.64 449ZM100.034 433.16C100.034 434.48 100.364 435.617 101.024 436.57C101.684 437.45 102.564 438.147 103.664 438.66C104.764 439.1 105.974 439.32 107.294 439.32C109.2 439.32 110.96 438.917 112.574 438.11C114.187 437.303 115.507 436.093 116.534 434.48C117.56 432.867 118.074 430.887 118.074 428.54L119.834 435.14C119.834 438.367 118.954 441.117 117.194 443.39C115.434 445.59 113.16 447.277 110.374 448.45C107.587 449.55 104.58 450.1 101.354 450.1C98.1272 450.1 95.1205 449.513 92.3338 448.34C89.6205 447.093 87.4205 445.26 85.7338 442.84C84.1205 440.42 83.3138 437.487 83.3138 434.04C83.3138 429.2 85.0372 425.387 88.4838 422.6C91.9305 419.74 96.8072 418.31 103.114 418.31C106.194 418.31 108.944 418.603 111.364 419.19C113.857 419.777 115.984 420.51 117.744 421.39C119.504 422.27 120.824 423.187 121.704 424.14V431.51C119.944 430.19 117.89 429.2 115.544 428.54C113.27 427.807 110.85 427.44 108.284 427.44C106.304 427.44 104.727 427.66 103.554 428.1C102.38 428.54 101.5 429.2 100.914 430.08C100.327 430.887 100.034 431.913 100.034 433.16ZM92.6638 413.91L87.0538 402.8C89.9138 401.407 93.3605 400.087 97.3938 398.84C101.427 397.593 105.827 396.97 110.594 396.97C115.067 396.97 119.064 397.63 122.584 398.95C126.104 400.197 128.89 402.03 130.944 404.45C132.997 406.87 134.024 409.84 134.024 413.36V449H118.074V417.1C118.074 415.853 117.854 414.79 117.414 413.91C117.047 412.957 116.46 412.15 115.654 411.49C114.847 410.83 113.82 410.353 112.574 410.06C111.4 409.767 110.044 409.62 108.504 409.62C106.23 409.62 103.994 409.877 101.794 410.39C99.6672 410.903 97.7972 411.527 96.1838 412.26C94.5705 412.92 93.3972 413.47 92.6638 413.91ZM145.471 379.37C145.471 376.73 146.424 374.603 148.331 372.99C150.237 371.303 152.511 370.46 155.151 370.46C157.864 370.46 160.137 371.303 161.971 372.99C163.877 374.603 164.831 376.73 164.831 379.37C164.831 382.01 163.877 384.173 161.971 385.86C160.137 387.547 157.864 388.39 155.151 388.39C152.511 388.39 150.237 387.547 148.331 385.86C146.424 384.173 145.471 382.01 145.471 379.37ZM147.121 398.4H163.181V449H147.121V398.4ZM176.861 363.2H193.581V449H176.861V363.2ZM258.32 398.4L225.32 473.2H208.6L220.92 444.93L199.03 398.4H217.29L233.68 438.99L225.1 438.88L241.27 398.4H258.32ZM298.501 372H317.091V449H298.501V372ZM310.161 387.29V372H325.231C331.758 372 337.221 373.027 341.621 375.08C346.095 377.06 349.468 379.92 351.741 383.66C354.015 387.4 355.151 391.91 355.151 397.19C355.151 402.323 354.015 406.797 351.741 410.61C349.468 414.35 346.095 417.247 341.621 419.3C337.221 421.28 331.758 422.27 325.231 422.27H310.161V406.98H325.231C328.971 406.98 331.905 406.137 334.031 404.45C336.158 402.763 337.221 400.343 337.221 397.19C337.221 393.963 336.158 391.507 334.031 389.82C331.905 388.133 328.971 387.29 325.231 387.29H310.161ZM380.618 429.2C380.618 432.133 381.168 434.443 382.268 436.13C383.368 437.743 385.275 438.55 387.988 438.55C389.821 438.55 391.361 438.183 392.608 437.45C393.928 436.717 394.955 435.653 395.688 434.26C396.421 432.867 396.788 431.18 396.788 429.2V398.4H413.398V449H396.788V441.41C395.248 444.123 393.231 446.287 390.738 447.9C388.245 449.44 385.128 450.21 381.388 450.21C375.081 450.21 370.461 448.523 367.528 445.15C364.668 441.703 363.238 436.973 363.238 430.96V398.4H380.618V429.2ZM426.51 363.2H443.23V449H426.51V363.2ZM458.908 430.63C461.475 432.757 463.785 434.443 465.838 435.69C467.965 436.863 469.835 437.707 471.448 438.22C473.061 438.66 474.455 438.88 475.628 438.88C477.315 438.88 478.561 438.513 479.368 437.78C480.175 437.047 480.578 436.093 480.578 434.92C480.578 433.82 480.248 432.903 479.588 432.17C478.928 431.363 477.791 430.593 476.178 429.86C474.638 429.127 472.511 428.357 469.798 427.55C467.378 426.67 465.068 425.643 462.868 424.47C460.741 423.223 458.981 421.573 457.588 419.52C456.195 417.467 455.498 414.827 455.498 411.6C455.498 408.52 456.305 405.917 457.918 403.79C459.605 401.663 461.841 400.05 464.628 398.95C467.488 397.85 470.751 397.3 474.418 397.3C477.351 397.3 480.065 397.63 482.558 398.29C485.125 398.95 487.508 399.83 489.708 400.93C491.981 402.03 494.108 403.313 496.088 404.78L490.148 415.56C488.021 413.58 485.601 411.967 482.888 410.72C480.175 409.4 477.681 408.74 475.408 408.74C473.868 408.74 472.695 409.033 471.888 409.62C471.155 410.207 470.788 410.977 470.788 411.93C470.788 413.03 471.228 413.947 472.108 414.68C473.061 415.413 474.381 416.11 476.068 416.77C477.828 417.357 479.955 418.127 482.448 419.08C485.088 420.033 487.508 421.133 489.708 422.38C491.981 423.627 493.778 425.203 495.098 427.11C496.491 429.017 497.188 431.547 497.188 434.7C497.188 440.127 495.501 444.233 492.128 447.02C488.828 449.733 484.171 451.09 478.158 451.09C474.491 451.09 471.081 450.65 467.928 449.77C464.848 448.963 461.988 447.863 459.348 446.47C456.708 445.003 454.251 443.39 451.978 441.63L458.908 430.63ZM532.064 450.1C526.197 450.1 521.101 449.037 516.774 446.91C512.521 444.71 509.221 441.63 506.874 437.67C504.527 433.71 503.354 429.053 503.354 423.7C503.354 418.273 504.491 413.58 506.764 409.62C509.037 405.66 512.301 402.617 516.554 400.49C520.881 398.363 525.977 397.3 531.844 397.3C537.711 397.3 542.661 398.327 546.694 400.38C550.727 402.36 553.807 405.257 555.934 409.07C558.061 412.883 559.124 417.503 559.124 422.93C559.124 423.737 559.124 424.543 559.124 425.35C559.124 426.083 559.051 426.707 558.904 427.22H512.704V417.98H543.944L539.984 423.04C540.351 422.527 540.644 421.903 540.864 421.17C541.157 420.363 541.304 419.703 541.304 419.19C541.304 416.99 540.901 415.083 540.094 413.47C539.287 411.857 538.151 410.61 536.684 409.73C535.217 408.85 533.494 408.41 531.514 408.41C529.021 408.41 526.931 408.96 525.244 410.06C523.557 411.16 522.274 412.847 521.394 415.12C520.587 417.32 520.147 420.107 520.074 423.48C520.074 426.56 520.514 429.2 521.394 431.4C522.274 433.6 523.594 435.287 525.354 436.46C527.114 437.56 529.277 438.11 531.844 438.11C534.777 438.11 537.271 437.56 539.324 436.46C541.451 435.36 543.137 433.71 544.384 431.51L559.234 435.14C556.594 440.127 553.001 443.867 548.454 446.36C543.981 448.853 538.517 450.1 532.064 450.1Z" fill="url(#paint0_linear_91_82)"/>
<defs>
<linearGradient id="paint0_linear_91_82" x1="0" y1="407" x2="563" y2="407" gradientUnits="userSpaceOnUse">
<stop offset="0.27" stop-color="white"/>
<stop offset="0.73" stop-color="#B2B2B2"/>
</linearGradient>
</defs>
</svg>
